PathFileType	4	(X/Y/Z)	C:/Users/opensim2020/Desktop/walking_exp_matlab/subject02_walking08_straight_01.trc																																																																																																																									
DataRate	CameraRate	NumFrames	NumMarkers	Units	OrigDataRate	OrigDataStartFrame	OrigNumFrames																																																																																																																					
100	100	4	41	mm	100	599	324																																																																																																																					
Frame#	Time	LFHD			RFHD			LBHD			RBHD			C7			T10			CLAV			STRN			RBAK			LSHO			LUPA			LELB			LFRM			LWRA			LWRB			LFIN			RSHO			RUPA			RELB			RFRM			RWRA			RWRB			RFIN			LASI			RASI			LPSI			RPSI			LTHI			LKNE			LTIB			LANK			LHEE			LTOE			RTHI			RKNE			RTIB			RANK			RHEE			RTOE			*39			*40		
		X1	Y1	Z1	X2	Y2	Z2	X3	Y3	Z3	X4	Y4	Z4	X5	Y5	Z5	X6	Y6	Z6	X7	Y7	Z7	X8	Y8	Z8	X9	Y9	Z9	X10	Y10	Z10	X11	Y11	Z11	X12	Y12	Z12	X13	Y13	Z13	X14	Y14	Z14	X15	Y15	Z15	X16	Y16	Z16	X17	Y17	Z17	X18	Y18	Z18	X19	Y19	Z19	X20	Y20	Z20	X21	Y21	Z21	X22	Y22	Z22	X23	Y23	Z23	X24	Y24	Z24	X25	Y25	Z25	X26	Y26	Z26	X27	Y27	Z27	X28	Y28	Z28	X29	Y29	Z29	X30	Y30	Z30	X31	Y31	Z31	X32	Y32	Z32	X33	Y33	Z33	X34	Y34	Z34	X35	Y35	Z35	X36	Y36	Z36	X37	Y37	Z37	X38	Y38	Z38	X39	Y39	Z39	X40	Y40	Z40	X41	Y41	Z41
																																																																																																																												
41	0.4	-1028.89917	1754.22375	-967.7002	-1032.50574	1723.86011	-823.61084	-1142.96594	1657.50708	-988.10938	-1157.74963	1622.43445	-850.15283	-1182.15845	1524.10229	-925.76343	-1247.16907	1251.29932	-919.62646	-1045.90833	1452.86035	-940.55969	-1001.00415	1277.20154	-936.19086	-1243.52576	1353.81506	-859.73987	-1113.51343	1500.16125	-1107.89758	-1124.55212	1304.7229	-1199.2179	-1121.33997	1162.98083	-1221.72388	-1080.48889	1035.32373	-1233.78564	-994.5957	931.03851	-1199.04773	-1038.63855	919.89618	-1232.78308	-1001.47369	865.34497	-1236.34473	-1093.94836	1483.81335	-743.47058	-1095.13757	1289.68347	-658.35413	-1056.45581	1146.15845	-646.15747	-1001.58173	1038.17883	-640.26996	-930.33917	926.86304	-674.08765	-970.55023	911.29541	-635.84186	-918.69897	860.26251	-642.16254	-1028.85645	988.7865	-1069.02954	-1014.13245	966.97302	-811.48035	-1234.08264	1031.35681	-975.48395	-1232.87317	1029.32275	-860.58801	-1051.33862	689.0766	-1151.87927	-1018.13678	490.54935	-1139.32397	-1027.93115	297.93304	-1157.92346	-963.19379	79.39844	-1157.08728	-985.61157	40.95647	-1105.78418	-805.87152	76.02029	-1175.64441	-1115.68384	661.15479	-762.46924	-1144.43506	454.00827	-811.93005	-1206.84619	275.54257	-807.96973	-1250.67529	87.08164	-851.83728	-1294.26013	34.31572	-906.01294	-1100.99854	30.78983	-849.61407	-1144.76929	1789.38708	-877.83405	NaN	NaN	NaN
42	0.41	-1022.2373	1753.2511	-969.48206	-1025.6134	1722.99878	-825.15497	-1136.89319	1656.99268	-989.51404	-1151.13354	1621.77979	-851.52087	-1175.77954	1523.53198	-927.10883	-1240.89612	1250.62939	-920.99878	-1039.32117	1452.03174	-941.82642	-994.56372	1276.39001	-937.01447	-1237.28613	1353.19324	-860.91449	-1107.23157	1499.18628	-1109.15637	-1120.00842	1304.02844	-1200.60681	-1119.19836	1162.79028	-1223.57397	-1079.19202	1034.57227	-1237.33789	-994.15851	928.75494	-1203.52881	-1038.61743	918.45361	-1236.98425	-1002.51685	863.30762	-1241.49707	-1087.64856	1483.46472	-744.67523	-1089.10095	1289.51855	-659.57141	-1049.23035	1145.93604	-647.24884	-994.61218	1038.00122	-641.81036	-921.41406	928.00031	-677.17065	-961.34979	911.6214	-638.16937	-909.06116	861.12134	-645.01941	-1021.35638	988.1424	-1069.60181	-1008.38403	966.23938	-811.71466	-1227.67554	1030.61218	-976.85114	-1226.64355	1028.45886	-862.06158	-1043.70593	688.56372	-1152.5719	-1009.03625	490.28284	-1139.75525	-1014.44403	297.71625	-1158.75208	-944.20874	80.52943	-1158.34802	-966.07062	41.66024	-1107.28027	-786.35602	79.65104	-1175.3363	-1111.64392	660.63324	-763.32611	-1141.20825	453.58624	-812.3399	-1205.36279	275.7356	-808.42328	-1250.35498	87.40048	-852.04926	-1294.15088	34.67122	-906.2583	-1100.98657	30.73711	-849.53503	-1137.85242	1789.04016	-879.46698	2845.86206	1034.04187	-3356.91528
43	0.42	-1015.34772	1752.30664	-971.14618	-1018.61926	1722.12109	-826.82074	-1129.2356	1656.13586	-991.12939	-1144.4032	1621.0708	-853.20471	-1169.14355	1522.76257	-928.56134	-1234.55493	1250.00098	-922.32892	-1032.70361	1451.20923	-943.14838	-988.1134	1275.57947	-937.94757	-1230.89539	1352.8042	-862.2453	-1100.87646	1498.16357	-1110.51831	-1115.84912	1303.4491	-1202.3158	-1116.0437	1162.06873	-1225.79395	-1078.07275	1033.83386	-1240.31262	-993.92963	926.45374	-1208.12781	-1038.77258	917.02917	-1241.29871	-1003.73358	860.90253	-1245.87292	-1081.26526	1483.06592	-746.27124	-1082.2428	1289.375	-660.51215	-1042.06482	1145.63855	-648.40259	-985.7132	1038.27063	-643.41077	-912.9787	928.24878	-679.30426	-952.34924	911.81598	-640.62067	-899.63623	861.79175	-647.83344	-1014.71368	987.21985	-1069.66882	-1003.862	965.63666	-812.06445	-1221.13831	1029.74573	-978.36823	-1220.90942	1028.00513	-863.32349	-1035.84277	687.93701	-1153.3584	-999.96777	489.91965	-1140.20496	-1001.32239	297.29651	-1159.44971	-926.11255	81.65708	-1159.37793	-947.55225	42.61834	-1108.44324	-767.90253	83.11806	-1175.06165	-1107.68604	660.19946	-764.07275	-1137.93225	453.08679	-813.0412	-1203.4928	275.73615	-808.75568	-1250.06897	87.64674	-852.27386	-1294.06689	35.07464	-906.46576	-1100.92163	30.85226	-849.59216	-1130.83057	1788.5022	-881.09961	2845.98486	1034.00232	-3356.89087
44	0.43	-1008.33429	1751.35474	-972.82422	-1011.6106	1721.23169	-828.62305	-1123.07703	1655.52429	-992.72125	-1137.56995	1620.5564	-854.86743	-1162.474	1521.9574	-930.05609	-1228.13135	1249.2478	-923.86292	-1025.9502	1450.30615	-944.64941	-981.51587	1274.65735	-938.96979	-1224.48364	1352.17883	-863.58319	-1094.52844	1497.00183	-1111.93579	-1111.40955	1302.41113	-1203.39636	-1113.21716	1161.48962	-1227.99365	-1076.83093	1032.73132	-1243.77515	-993.86932	924.16516	-1212.76233	-1039.15479	915.56506	-1245.59692	-1004.89349	858.8147	-1250.17566	-1074.66565	1482.47583	-747.79004	-1075.26636	1288.58887	-661.8241	-1034.75366	1145.19373	-649.68262	-977.88617	1038.00928	-645.59467	-904.31891	928.85876	-681.73633	-943.42572	912.00653	-643.01941	-890.35632	862.32446	-650.70251	-1007.5589	986.23212	-1070.12317	-998.06335	964.7995	-812.54651	-1214.57849	1028.91272	-979.92444	-1214.83899	1027.21191	-864.89313	-1027.67432	687.33569	-1154.00195	-990.82269	489.47128	-1140.65747	-988.73676	296.91422	-1159.86951	-908.98694	82.73894	-1160.16638	-929.07123	42.6427	-1109.21497	-750.53461	86.33664	-1174.97876	-1103.83228	659.75958	-764.91815	-1135.26892	453.01691	-813.51636	-1201.64722	275.7789	-809.20703	-1249.56921	88.26238	-852.29291	-1293.70996	35.20526	-906.77533	-1100.85266	30.82329	-849.57916	-1123.71716	1787.95532	-882.92999	2845.16016	1034.13892	-3360.26831
